<svg width="36" height="157" viewBox="0 0 36 157" fill="none" xmlns="http://www.w3.org/2000/svg">
<path d="M31.4091 5.34294C30.2241 5.34391 29.0879 5.81507 28.25 6.65299C27.4121 7.49091 26.9409 8.6271 26.9399 9.81209C26.9399 11.4611 27.843 12.887 29.1739 13.6621V14.2812C29.1739 14.2812 29.1739 18.7504 24.7048 18.7504C22.8523 18.7504 21.4007 19.1477 20.2356 19.7559V9.19419C20.9133 8.8052 21.4766 8.24455 21.8688 7.56868C22.2609 6.89281 22.4682 6.12556 22.4696 5.34416C22.4696 2.87741 20.4672 0.875 18.0004 0.875C15.5337 0.875 13.5313 2.87741 13.5313 5.34416C13.5327 6.12556 13.7399 6.89281 14.1321 7.56868C14.5242 8.24455 15.0875 8.8052 15.7652 9.19419V23.8387C15.0877 24.2276 14.5245 24.788 14.1324 25.4637C13.7402 26.1393 13.5329 26.9063 13.5313 27.6875C13.5313 30.153 15.5337 32.1567 18.0004 32.1567C20.4672 32.1567 22.4696 30.153 22.4696 27.6875C22.4696 26.5175 22.0089 25.4621 21.274 24.6626C21.9248 23.8643 22.9814 23.2183 24.7048 23.2183C33.5724 23.2183 33.6418 14.2812 33.6418 14.2812V13.6621C34.3193 13.2728 34.8824 12.7121 35.2745 12.0363C35.6667 11.3605 35.874 10.5934 35.8758 9.81209C35.8748 8.6271 35.4037 7.49091 34.5658 6.65299C33.7278 5.81507 32.5917 5.34391 31.4067 5.34294H31.4091ZM18.0028 3.10897C19.2387 3.10897 20.2368 4.10712 20.2368 5.34294C20.2368 6.57875 19.2387 7.57691 18.0028 7.57691C16.767 7.57691 15.7689 6.57875 15.7689 5.34294C15.7689 4.10712 16.767 3.10897 18.0028 3.10897ZM18.0028 29.9215C17.5614 29.9212 17.1298 29.7901 16.7629 29.5447C16.3959 29.2992 16.1099 28.9505 15.941 28.5426C15.7722 28.1347 15.7281 27.6858 15.8143 27.2528C15.9005 26.8198 16.1131 26.4221 16.4253 26.1099C16.7375 25.7977 17.1352 25.5851 17.5682 25.4989C18.0012 25.4127 18.45 25.4569 18.8579 25.6257C19.2659 25.7945 19.6146 26.0805 19.86 26.4475C20.1055 26.8145 20.2366 27.246 20.2368 27.6875C20.237 27.9809 20.1793 28.2715 20.0671 28.5426C19.9549 28.8137 19.7903 29.06 19.5829 29.2675C19.3754 29.475 19.129 29.6395 18.8579 29.7517C18.5868 29.864 18.2963 29.9216 18.0028 29.9215ZM31.4091 12.0461C30.1745 12.0461 29.1751 11.0479 29.1751 9.81209C29.1751 8.57628 30.1745 7.57812 31.4091 7.57812C32.6437 7.57812 33.6431 8.57628 33.6431 9.81209C33.6431 11.0479 32.6437 12.0461 31.4091 12.0461Z" fill="white"/>
<path d="M18.3978 129.571C19.5646 129.572 20.6832 130.054 21.5082 130.911C22.3332 131.768 22.7971 132.93 22.7981 134.142C22.7981 135.829 21.9089 137.288 20.5986 138.081V138.714C20.5986 138.714 20.5986 143.286 24.9988 143.286C26.8227 143.286 28.2519 143.692 29.399 144.314L29.399 133.51C28.7318 133.112 28.1772 132.539 27.7911 131.847C27.4049 131.156 27.2009 130.371 27.1995 129.572C27.1995 127.048 29.171 125 31.5998 125C34.0285 125 36 127.048 36 129.572C35.9986 130.371 35.7946 131.156 35.4085 131.847C35.0223 132.539 34.4677 133.112 33.8005 133.51L33.8005 148.491C34.4676 148.889 35.022 149.462 35.4082 150.153C35.7943 150.844 35.9984 151.629 36 152.428C36 154.95 34.0285 157 31.5998 157C29.171 157 27.1995 154.95 27.1995 152.428C27.1995 151.231 27.6531 150.152 28.3767 149.334C27.7359 148.517 26.6955 147.856 24.9988 147.856C16.2679 147.856 16.1995 138.714 16.1995 138.714V138.081C15.5325 137.683 14.9781 137.109 14.592 136.418C14.2059 135.726 14.0018 134.942 14 134.142C14.001 132.93 14.4649 131.768 15.2899 130.911C16.1149 130.054 17.2335 129.572 18.4002 129.571H18.3978ZM31.5974 127.285C30.3806 127.285 29.3978 128.306 29.3978 129.571C29.3978 130.835 30.3806 131.856 31.5974 131.856C32.8141 131.856 33.7969 130.835 33.7969 129.571C33.7969 128.306 32.8141 127.285 31.5974 127.285ZM31.5974 154.713C32.032 154.713 32.4569 154.579 32.8182 154.328C33.1796 154.077 33.4611 153.72 33.6274 153.303C33.7936 152.886 33.837 152.427 33.7522 151.984C33.6673 151.541 33.458 151.134 33.1506 150.814C32.8432 150.495 32.4516 150.278 32.0253 150.189C31.599 150.101 31.1571 150.146 30.7555 150.319C30.3538 150.492 30.0105 150.784 29.7688 151.16C29.5272 151.535 29.3981 151.977 29.3978 152.428C29.3977 152.728 29.4545 153.026 29.5649 153.303C29.6754 153.58 29.8374 153.832 30.0417 154.045C30.246 154.257 30.4885 154.425 30.7555 154.54C31.0224 154.655 31.3085 154.714 31.5974 154.713ZM18.3978 136.428C19.6134 136.428 20.5974 135.407 20.5974 134.142C20.5974 132.878 19.6134 131.857 18.3978 131.857C17.1823 131.857 16.1983 132.878 16.1983 134.142C16.1983 135.407 17.1823 136.428 18.3978 136.428Z" fill="white"/>
<path d="M4.59774 134.429C5.8175 134.428 6.98701 133.946 7.84951 133.089C8.71201 132.232 9.197 131.07 9.19799 129.858C9.198 128.171 8.26841 126.712 6.8985 125.919L6.8985 125.286C6.8985 125.286 6.8985 120.714 11.4988 120.714C13.4056 120.714 14.8997 120.308 16.099 119.686L16.099 130.49C15.4014 130.888 14.8216 131.461 14.4179 132.153C14.0143 132.844 13.801 133.629 13.7995 134.428C13.7995 136.952 15.8606 139 18.3998 139C20.9389 139 23 136.952 23 134.428C22.9985 133.629 22.7852 132.844 22.3816 132.153C21.9779 131.461 21.3981 130.888 20.7005 130.49L20.7005 115.509C21.3979 115.111 21.9776 114.538 22.3813 113.847C22.7849 113.156 22.9983 112.371 23 111.572C23 109.05 20.9389 107 18.3998 107C15.8606 107 13.7995 109.05 13.7995 111.572C13.7995 112.769 14.2737 113.848 15.0302 114.666C14.3603 115.483 13.2726 116.144 11.4988 116.144C2.37101 116.144 2.2995 125.286 2.2995 125.286L2.2995 125.919C1.60217 126.317 1.02257 126.891 0.618937 127.582C0.2153 128.274 0.00183783 129.058 1.56741e-06 129.858C0.000998131 131.07 0.485988 132.232 1.34849 133.089C2.21098 133.946 3.3805 134.428 4.60025 134.429L4.59774 134.429ZM18.3972 136.715C17.1252 136.715 16.0977 135.694 16.0977 134.429C16.0977 133.165 17.1252 132.144 18.3972 132.144C19.6693 132.144 20.6967 133.165 20.6967 134.429C20.6967 135.694 19.6693 136.715 18.3972 136.715ZM18.3972 109.287C18.8517 109.287 19.2959 109.421 19.6736 109.672C20.0514 109.923 20.3457 110.28 20.5195 110.697C20.6933 111.114 20.7387 111.573 20.65 112.016C20.5613 112.459 20.3424 112.866 20.0211 113.186C19.6998 113.505 19.2904 113.722 18.8447 113.811C18.399 113.899 17.937 113.854 17.5171 113.681C17.0972 113.508 16.7382 113.216 16.4856 112.84C16.233 112.465 16.098 112.023 16.0977 111.572C16.0976 111.272 16.1569 110.974 16.2724 110.697C16.388 110.42 16.5573 110.168 16.7709 109.955C16.9844 109.743 17.238 109.575 17.5171 109.46C17.7961 109.345 18.0952 109.286 18.3972 109.287ZM4.59774 127.572C5.86855 127.572 6.89724 128.593 6.89724 129.858C6.89724 131.122 5.86855 132.143 4.59774 132.143C3.32694 132.143 2.29825 131.122 2.29825 129.858C2.29825 128.593 3.32694 127.572 4.59774 127.572Z" fill="white"/>
<path d="M18 31V108" stroke="white" stroke-width="4"/>
</svg>
